PathFileType	4	(X/Y/Z)	/Users/niels/Desktop/University/Third Semester/Perception and Action/Exam/Gymnastics Motion Tracking/Code for Gym Tracking/Analyzed Data/Webcam_Backflip/id6_4_pure_Sports2D/id6_4_pure_Sports2D_px_person00.trc
DataRate	CameraRate	NumFrames	NumMarkers	Units	OrigDataRate	OrigDataStartFrame	OrigNumFrames
29.8125	29.8125	12	22	m	29.8125	140	160
Frame#	Time	Hip			RHip			RKnee			RAnkle			RBigToe			RSmallToe			RHeel			LHip			LKnee			LAnkle			LBigToe			LSmallToe			LHeel			Neck			Head			Nose			RShoulder			RElbow			RWrist			LShoulder			LElbow			LWrist		
		X1	Y1	Z1	X2	Y2	Z2	X3	Y3	Z3	X4	Y4	Z4	X5	Y5	Z5	X6	Y6	Z6	X7	Y7	Z7	X8	Y8	Z8	X9	Y9	Z9	X10	Y10	Z10	X11	Y11	Z11	X12	Y12	Z12	X13	Y13	Z13	X14	Y14	Z14	X15	Y15	Z15	X16	Y16	Z16	X17	Y17	Z17	X18	Y18	Z18	X19	Y19	Z19	X20	Y20	Z20	X21	Y21	Z21	X22	Y22	Z22
140	4.696016771488469	0.9252811849810448	-0.6059686003131658	0.0	0.9289806739932815	-0.6039491557086323	0.0	0.9664831115597017	-0.6981372510212519	0.0	0.9318798496392955	-0.7898397549192068	0.0	0.9675043699414624	-0.8098423754365446	0.0	0.958571217224865	-0.813212681992611	0.0	0.9219301626576086	-0.8034434879367813	0.0	0.920683042934653	-0.6026197584811562	0.0	0.9302498144259663	-0.7016529703172736	0.0	0.9177168240138669	-0.7929393453836605	0.0	0.955198168121392	-0.809648543401967	0.0	0.9474463985056826	-0.8056132133020134	0.0	0.9096670404899775	-0.8065932545139486	0.0	0.9421713645446568	-0.47525075994546484	0.0	0.9756506468980605	-0.4167432238484417	0.0	0.9798333243693966	-0.45308730864229685	0.0	0.9350134251772698	-0.49282495693018724	0.0	0.9331097823588178	-0.5568727355523296	0.0	0.9546958125593784	-0.6133843145118686	0.0	0.9283804385240114	-0.4893664630824128	0.0	0.9188575537139503	-0.5537537384742739	0.0	0.9385620444310684	-0.6079506449677599	0.0
141	4.729559748427672	0.9260753787917814	-0.607351764375145	0.0	0.9296626248734133	-0.604998700123609	0.0	0.966639526763239	-0.6993767592223135	0.0	0.9317946159516979	-0.7904284366557514	0.0	0.9668368771836725	-0.8106898343970597	0.0	0.9580917171131705	-0.8140048270726623	0.0	0.9217186548813314	-0.8042048907060237	0.0	0.9212553440418533	-0.6040652555493196	0.0	0.9300458351435634	-0.7026239093072163	0.0	0.917563741156476	-0.7933590907619406	0.0	0.9553168472007804	-0.8104665543390266	0.0	0.9472335416164742	-0.806308281119718	0.0	0.9096841188820455	-0.8071509866438715	0.0	0.9420366241978462	-0.47685978470424045	0.0	0.9755947216597478	-0.41763299204703946	0.0	0.9795409271030905	-0.4543941105160925	0.0	0.9346558844305896	-0.49459014135472373	0.0	0.9329901308649948	-0.5588087180896384	0.0	0.9523248808682077	-0.6156408546868233	0.0	0.9287383956041688	-0.4914028409682767	0.0	0.9207746751707788	-0.5561638363665992	0.0	0.9382553152376294	-0.6088149020908593	0.0
142	4.763102725366876	0.9269196642743794	-0.6055854275876097	0.0	0.9303514043921667	-0.603064538184025	0.0	0.9663070513679948	-0.6980379777368254	0.0	0.9317379101508086	-0.7885917171118678	0.0	0.9665578411499288	-0.8091882578635241	0.0	0.9578308222893464	-0.8123594788804063	0.0	0.9214829631175607	-0.8027204736029391	0.0	0.9219545481321693	-0.6024880327738885	0.0	0.93016206391902	-0.7007409588495264	0.0	0.9175852395929714	-0.7911088330075091	0.0	0.9554207804014259	-0.8085370203223289	0.0	0.9470297219043691	-0.8043975720675263	0.0	0.9098805618072446	-0.8050189732353954	0.0	0.9423762573511163	-0.4753886569066126	0.0	0.9758045884100263	-0.4158680294200977	0.0	0.9796323303611979	-0.4527954818616353	0.0	0.9346894914056513	-0.4931893453422595	0.0	0.9330604849244734	-0.5574847713819686	0.0	0.9502824114213905	-0.6145595274936841	0.0	0.9294018573974367	-0.49025723043285235	0.0	0.9224776593339179	-0.5550534122636098	0.0	0.9381914185125286	-0.6067206702863753	0.0
143	4.796645702306079	0.9277977070564442	-0.601049536612343	0.0	0.9310463277009933	-0.5985386312554786	0.0	0.9655938263672569	-0.6943303987512763	0.0	0.9316663451638758	-0.7846543398763116	0.0	0.9667872555116731	-0.805616965041761	0.0	0.9579095913950567	-0.8086428336313899	0.0	0.9212681119085967	-0.7992449468041753	0.0	0.9227342796582583	-0.5982500060137771	0.0	0.9306105929239209	-0.6963108407909427	0.0	0.9178099873290667	-0.7865712283323424	0.0	0.9554519093017116	-0.8042355151968917	0.0	0.9469006220393754	-0.8002326055672657	0.0	0.9102165146466088	-0.8006345192086771	0.0	0.9430681581156537	-0.47117995794050643	0.0	0.9763795134663508	-0.4116986126321124	0.0	0.9800424206959532	-0.4485450866975893	0.0	0.9350673726385377	-0.48889665130893084	0.0	0.9331991033682236	-0.5532392861322551	0.0	0.9487825629396133	-0.6104222647076796	0.0	0.9303265456801733	-0.48628349353935857	0.0	0.9240902860059642	-0.5508733511717967	0.0	0.9386257589201146	-0.6019472505216981	0.0
144	4.830188679245282	0.9287244164116225	-0.5943886985657261	0.0	0.9317976856316144	-0.592072676588662	0.0	0.9646028513584913	-0.6887520993022013	0.0	0.9315614184938575	-0.7792243722283916	0.0	0.9674884080402649	-0.8005492555127329	0.0	0.9583416605807147	-0.8034916220969602	0.0	0.9211124057755761	-0.7943031931436179	0.0	0.9236117303446251	-0.5919792918086519	0.0	0.931327990955143	-0.6899748656108162	0.0	0.9182510894865326	-0.7804335654078024	0.0	0.9555035201806693	-0.7983305855543331	0.0	0.9469967078605881	-0.7945247984749894	0.0	0.9106113708276946	-0.7947577537810612	0.0	0.9439873269745026	-0.46488079174611435	0.0	0.9772634635997506	-0.4056425907346254	0.0	0.9806905397908006	-0.4422424628928232	0.0	0.9357071732980204	-0.482377209633926	0.0	0.9333144174785084	-0.546736559202305	0.0	0.9478854238071633	-0.6039115997762388	0.0	0.9314464132254355	-0.4801449207264596	0.0	0.9257370735688559	-0.5443937553586706	0.0	0.9395812814297405	-0.5950619316888061	0.0
145	4.863731656184486	0.9297073145706294	-0.5864313810612949	0.0	0.9326090484020654	-0.5844529098112862	0.0	0.9633887487876941	-0.6819790660077106	0.0	0.9314581277328553	-0.7730439183053447	0.0	0.9684009699000793	-0.7947334681237372	0.0	0.9589631414769026	-0.7976549114850208	0.0	0.9210286212970187	-0.7885762157922028	0.0	0.924619564249064	-0.5844397317491847	0.0	0.9322616965340403	-0.6825384308057101	0.0	0.9188859750010161	-0.7735063819454493	0.0	0.9557234150817937	-0.7917454889990467	0.0	0.947425696209281	-0.7881335730239338	0.0	0.910988299670075	-0.7882360247446157	0.0	0.9450344565669949	-0.45730479641609767	0.0	0.9783166888888452	-0.3984071487705325	0.0	0.9814803447424086	-0.43470194989628624	0.0	0.9365172235408029	-0.47451108597634784	0.0	0.9334146815414852	-0.5388257338510889	0.0	0.9475744945946876	-0.5959373079620892	0.0	0.9326764112382153	-0.4726409448814277	0.0	0.9274256553437998	-0.5365287151867767	0.0	0.9408831770225043	-0.5868873149899936	0.0
146	4.897274633123689	0.9307513832308927	-0.5781046713666946	0.0	0.9334307693391141	-0.5765273494102395	0.0	0.9619429054750813	-0.6747869342696616	0.0	0.9313688423834543	-0.7668587952304797	0.0	0.9691484580918209	-0.7889469807701537	0.0	0.9594895130407298	-0.7918635649973897	0.0	0.9209940660200459	-0.7827955565712083	0.0	0.9257724479784954	-0.5764690925219041	0.0	0.9334034943998811	-0.6748268468810265	0.0	0.919688829237498	-0.7665383421040698	0.0	0.9562642197736104	-0.7853410480517261	0.0	0.9482400103582359	-0.7818482604560825	0.0	0.9113032915880294	-0.7818021129033598	0.0	0.9461264508031343	-0.4493239641313252	0.0	0.9793967324069992	-0.39078977019488936	0.0	0.9823182611803314	-0.42679547639472276	0.0	0.9374048751791297	-0.4662357445945893	0.0	0.933611918807857	-0.5304573465391755	0.0	0.9478143336987445	-0.5875485725290145	0.0	0.9339213343135843	-0.464648244349286	0.0	0.929083785641214	-0.52824236301368	0.0	0.942293918310067	-0.5784271975901382	0.0
147	4.930817610062892	0.9318538792682186	-0.5703239040359875	0.0	0.93422223442694	-0.5691566280141364	0.0	0.9602217336830589	-0.667993107976891	0.0	0.9312247647805066	-0.761342482625767	0.0	0.9694369679509113	-0.7838618020519806	0.0	0.9596605296106451	-0.7867504606606041	0.0	0.9209527050674247	-0.7776633063140812	0.0	0.9270511449230435	-0.5689311270358267	0.0	0.9347537840218629	-0.6676246688755457	0.0	0.9206489541474483	-0.7601562233020734	0.0	0.9572242325451764	-0.7798045787434381	0.0	0.949442168984831	-0.7763035560705537	0.0	0.9115588469231487	-0.7760176900184601	0.0	0.9471755895488518	-0.44180287727732803	0.0	0.9803630780444748	-0.3835681047483253	0.0	0.9831201137107066	-0.41932718971163613	0.0	0.9383038108523477	-0.45847177979612536	0.0	0.9340497267486387	-0.522612580281051	0.0	0.9485505954406547	-0.5798110155492281	0.0	0.9350974200213673	-0.4570872563534583	0.0	0.9306511675036679	-0.5204660069204006	0.0	0.9436596536289318	-0.5706865101788969	0.0
148	4.964360587002096	0.9329811940749725	-0.5638968153897791	0.0	0.934988743988052	-0.563122732521846	0.0	0.9582078488483351	-0.662357659878221	0.0	0.9309293747908353	-0.7570453808897665	0.0	0.9691797673177517	-0.7799615785843893	0.0	0.9593617691804095	-0.7828039178298875	0.0	0.9208319328129395	-0.7737586298228539	0.0	0.9284001476418411	-0.5626319896892338	0.0	0.9362693003138265	-0.6616422844591591	0.0	0.9217210062508285	-0.7548982636171586	0.0	0.9585274468060464	-0.7756123684706459	0.0	0.9509182340247455	-0.7719948559575699	0.0	0.9117870388305409	-0.7713213025031017	0.0	0.9480966626867834	-0.43552780777807865	0.0	0.9810827828544836	-0.3774126569174741	0.0	0.9838137021576812	-0.4129749030271797	0.0	0.9391913315439229	-0.45204398716817673	0.0	0.9348020846954146	-0.5161871548742978	0.0	0.9497073435471427	-0.5736311258602274	0.0	0.9361571210541954	-0.45079140611465035	0.0	0.9320957341106323	-0.5139838086328884	0.0	0.9449641295557443	-0.5644751157947058	0.0
149	4.997903563941299	0.9340854075010778	-0.559463547270263	0.0	0.9357628434526066	-0.5590274396818136	0.0	0.9559566199564481	-0.6584796531255811	0.0	0.9304538719510991	-0.754369060136894	0.0	0.9684773958423043	-0.7775459643825331	0.0	0.9586371702800472	-0.7803487064903312	0.0	0.9205830754047266	-0.7714653074337275	0.0	0.9297564126248244	-0.5582311918751399	0.0	0.9378382703827148	-0.6574737906305845	0.0	0.9227885659998213	-0.7512246330136895	0.0	0.9599102494617021	-0.7730535139763474	0.0	0.95242453573717	-0.7692997430631623	0.0	0.912008609713601	-0.7680823035693296	0.0	0.9488311774275131	-0.43111964814338305	0.0	0.9814624550311929	-0.3728420294440528	0.0	0.9843521397463346	-0.40827860248992665	0.0	0.9400553822217996	-0.44756986250940056	0.0	0.9358384721901479	-0.511879314817349	0.0	0.9512087243080256	-0.5696562386847168	0.0	0.9370954234750314	-0.44637286241772856	0.0	0.9334200006664606	-0.509375864278695	0.0	0.9463179460344466	-0.5603266208229547	0.0
150	5.031446540880502	0.9351422715624252	-0.5574645886272316	0.0	0.9365677137951787	-0.5572529683942742	0.0	0.95359058651151	-0.656762580433506	0.0	0.9298576854809271	-0.7535764701384577	0.0	0.9674664596944004	-0.7767968253395737	0.0	0.9575883948695266	-0.7795758514183061	0.0	0.9202112253554455	-0.7709836032288802	0.0	0.9310764134715437	-0.5561844520681621	0.0	0.9392871095296875	-0.655564567728225	0.0	0.923711469803829	-0.7494994286357264	0.0	0.961036683255511	-0.7722869837113178	0.0	0.9536513561274427	-0.7684719627021718	0.0	0.9122196220775675	-0.7666044384142601	0.0	0.949358263316236	-0.4289574647329046	0.0	0.9814586959003745	-0.37020179171066897	0.0	0.9847118525987892	-0.4056147254930286	0.0	0.9408579412861898	-0.44540616111809306	0.0	0.9370690662511242	-0.5101233001124402	0.0	0.9529955631010181	-0.5682483306545557	0.0	0.9379242300426386	-0.44420415210810704	0.0	0.9346820730823395	-0.507044291969377	0.0	0.947899435447023	-0.5585415234284403	0.0
151	5.064989517819706	0.9361487112847267	-0.558101689834488	0.0	0.9373968174314501	-0.557956455043057	0.0	0.9512657051263963	-0.6573915197032971	0.0	0.9292283554942425	-0.7547810050715117	0.0	0.966187604127806	-0.7777985612629614	0.0	0.956283286541735	-0.780557494424236	0.0	0.9197573752956627	-0.7723650184197659	0.0	0.9323302967311115	-0.5566960268239408	0.0	0.9404318590170134	-0.6561464297105378	0.0	0.9244012532090404	-0.7499513559458276	0.0	0.9616216597584011	-0.7733549906300453	0.0	0.954328738048787	-0.7696071841576065	0.0	0.9124146407888433	-0.7670785895390306	0.0	0.9496999985333608	-0.42915873671846066	0.0	0.9810813087703932	-0.36965499231934207	0.0	0.9848840534364025	-0.40515744349411026	0.0	0.9415536079357708	-0.44567592946494483	0.0	0.938406690936034	-0.5110490353546198	0.0	0.9550198497662958	-0.5694711145016019	0.0	0.9386402180216793	-0.4444472791033468	0.0	0.9359611449333506	-0.5072110712069589	0.0	0.9498452495527768	-0.5592593224778514	0.0
